<svg width="25" height="27" viewBox="0 0 25 27" fill="none" xmlns="http://www.w3.org/2000/svg">
<path d="M17.5029 25.5C17.5029 26.0523 17.0552 26.5 16.5029 26.5H8.50293C7.95064 26.5 7.50293 26.0523 7.50293 25.5C7.50293 24.9477 7.95064 24.5 8.50293 24.5H16.5029C17.0552 24.5 17.5029 24.9477 17.5029 25.5ZM22.5029 22.5001H2.50293C1.78733 22.499 1.12676 22.1158 0.770722 21.4951C0.414686 20.8743 0.417441 20.1107 0.777924 19.4925C1.47167 18.2975 2.50293 14.9175 2.50293 10.5C2.50293 4.97715 6.98008 0.5 12.5029 0.5C18.0258 0.5 22.5029 4.97715 22.5029 10.5C22.5029 14.9163 23.5354 18.2975 24.2292 19.4925C24.5934 20.1117 24.5948 20.8794 24.2329 21.5C23.8809 22.1224 23.2186 22.505 22.5029 22.5001ZM22.5029 20.5C21.5367 18.8412 20.5029 15.0063 20.5029 10.5C20.5029 6.08172 16.9212 2.5 12.5029 2.5C8.08465 2.5 4.50293 6.08172 4.50293 10.5C4.50293 15.0075 3.46793 18.8425 2.50293 20.5H22.5029Z" fill="#FFEE00"/>
</svg>
