<svg width="14" height="18" viewBox="0 0 14 18" fill="none" xmlns="http://www.w3.org/2000/svg">
<path d="M7.15698 10.25C6.53892 10.25 5.93473 10.0667 5.42083 9.72334C4.90692 9.37997 4.50638 8.89191 4.26986 8.32089C4.03334 7.74987 3.97145 7.12154 4.09203 6.51534C4.21261 5.90915 4.51024 5.35233 4.94728 4.91529C5.38431 4.47825 5.94114 4.18063 6.54733 4.06005C7.15352 3.93947 7.78185 4.00135 8.35287 4.23788C8.92389 4.4744 9.41195 4.87494 9.75533 5.38884C10.0987 5.90275 10.282 6.50694 10.282 7.125C10.281 7.9535 9.95143 8.74778 9.3656 9.33361C8.77976 9.91945 7.98548 10.249 7.15698 10.25ZM7.15698 5.25C6.78614 5.25 6.42363 5.35997 6.11529 5.566C5.80695 5.77202 5.56662 6.06486 5.42471 6.40747C5.2828 6.75008 5.24566 7.12708 5.31801 7.4908C5.39036 7.85451 5.56894 8.1886 5.83116 8.45083C6.09338 8.71305 6.42748 8.89163 6.79119 8.96397C7.1549 9.03632 7.5319 8.99919 7.87452 8.85728C8.21713 8.71536 8.50996 8.47504 8.71599 8.1667C8.92202 7.85835 9.03198 7.49584 9.03198 7.125C9.03149 6.62787 8.83378 6.15125 8.48226 5.79972C8.13074 5.4482 7.65411 5.2505 7.15698 5.25Z" fill="#FFEE00"/>
<path d="M7.107 17.75L1.8345 11.5319C1.76124 11.4385 1.68873 11.3445 1.617 11.25C0.716816 10.0634 0.230323 8.61443 0.231999 7.125C0.231999 5.30164 0.956327 3.55295 2.24564 2.26364C3.53495 0.974328 5.28364 0.25 7.107 0.25C8.93036 0.25 10.679 0.974328 11.9684 2.26364C13.2577 3.55295 13.982 5.30164 13.982 7.125C13.9834 8.61372 13.4972 10.0619 12.5976 11.2481L12.597 11.25C12.597 11.25 12.4095 11.4963 12.3814 11.5294L7.107 17.75ZM2.61512 10.4969C2.61512 10.4969 2.76075 10.6894 2.79387 10.7306L7.107 15.8175L11.4257 10.7237C11.4532 10.6894 11.5995 10.4956 11.6001 10.495C12.3359 9.52572 12.7335 8.3419 12.732 7.125C12.732 5.63316 12.1394 4.20242 11.0845 3.14752C10.0296 2.09263 8.59884 1.5 7.107 1.5C5.61516 1.5 4.18442 2.09263 3.12952 3.14752C2.07463 4.20242 1.482 5.63316 1.482 7.125C1.48046 8.34269 1.87853 9.52724 2.61512 10.4969Z" fill="#EDEDED"/>
</svg>
